<svg width="336" height="147" viewBox="0 0 336 147" fill="none" xmlns="http://www.w3.org/2000/svg">
<path d="M0 16.0007H336V147.001H0V16.0007Z" fill="#DBF8F0"/>
<path d="M0 0.000732418L336 0V146.999H295.79C288.897 146.064 281.92 145.162 275.26 142.948C266.071 140.827 258.193 135.356 250.79 129.752C247.059 126.219 242.669 123.354 239.732 119.053C236.302 115.645 233.689 111.561 231.303 107.393C227.338 99.759 223.541 91.5237 224.042 82.7038C223.257 78.2771 223.115 73.7836 222.381 69.3569C223.032 63.9948 220.728 58.9667 220.595 53.6631C220.244 51.4999 219.068 49.5872 218.475 47.4908C216.898 41.5106 213.484 36.1735 209.62 31.4127C206.257 26.8858 201.191 24.1212 196.417 21.3399C180.711 14.5412 161.732 13.9566 146.535 22.4424C142.145 24.4386 138.631 27.7962 134.951 30.803C127.832 38.3117 122.657 47.7246 120.438 57.8559C120.17 61.5225 119.419 65.1223 118.76 68.7305C118.226 72.4305 119.152 76.2475 118.218 79.9058C117.124 83.823 118.627 88.0826 116.79 91.8662C115.363 99.6588 111.382 106.658 107.326 113.365C99.448 125.25 88.1228 134.621 75.3037 140.768C66.4989 144.318 57.0348 145.763 47.721 146.999L0 147V0.000732418Z" fill="white"/>
<path fill-rule="evenodd" clip-rule="evenodd" d="M142 117.035C150.987 112.61 155.48 107.41 155.48 101.436C151.65 100.993 148.482 99.4263 145.978 96.7343C143.473 94.0423 142.221 90.9263 142.221 87.3861C142.221 83.6247 143.436 80.4534 145.867 77.872C148.298 75.2907 151.355 74 155.038 74C159.163 74 162.735 75.6779 165.756 79.0336C168.776 82.3894 170.286 86.4642 170.286 91.2581C170.286 105.64 162.257 116.887 146.199 125L142 117.035ZM173.714 117.035C182.775 112.61 187.305 107.41 187.305 101.436C183.401 100.993 180.196 99.4263 177.692 96.7343C175.187 94.0423 173.935 90.9263 173.935 87.3861C173.935 83.6247 175.169 80.4534 177.637 77.872C180.104 75.2907 183.18 74 186.863 74C190.988 74 194.542 75.6779 197.525 79.0336C200.508 82.3894 202 86.4642 202 91.2581C202 105.64 194.008 116.887 178.023 125L173.714 117.035Z" fill="#6EE5C4"/>
</svg>
