<svg width="32" height="32" viewBox="0 0 32 32" fill="none" xmlns="http://www.w3.org/2000/svg">
<g clip-path="url(#clip0)">
<rect x="6.22217" width="25.7778" height="25.7778" rx="3" fill="#6EE5C4"/>
<path d="M12.6111 5.91459L20.4343 9.57918C20.61 9.66148 20.7222 9.83797 20.7222 10.032V15.0068H12.6111V5.91459ZM1.7879 9.57918L9.61111 5.91459V15.0068H1.5V10.032C1.5 9.83797 1.61222 9.66148 1.7879 9.57918ZM1.56924 18.0068H9.61111V29.8971C7.62789 29.0105 5.8931 27.5513 4.40275 25.4685C2.76103 23.1741 1.82111 20.6949 1.56924 18.0068ZM17.8195 25.4685C16.3291 27.5513 14.5943 29.0105 12.6111 29.8971V18.0068H20.653C20.4011 20.6949 19.4612 23.1741 17.8195 25.4685Z" stroke="#0B0D17" stroke-width="3"/>
</g>
<defs>
<clipPath id="clip0">
<rect width="32" height="32" fill="white"/>
</clipPath>
</defs>
</svg>
