<svg width="32" height="32" viewBox="0 0 32 32" fill="none" xmlns="http://www.w3.org/2000/svg">
<g clip-path="url(#clip0)">
<rect x="6.22217" width="25.7778" height="25.7778" rx="3" fill="#6EE5C4"/>
<path d="M18.3796 26.4907C18.9319 26.4907 19.3796 26.043 19.3796 25.4907V13.6203C19.3796 13.0681 18.9319 12.6203 18.3796 12.6203H6.50926C5.95698 12.6203 5.50926 13.0681 5.50926 13.6203V25.4907C5.50926 26.043 5.95697 26.4907 6.50926 26.4907H18.3796ZM24.8889 16.8009C24.8889 17.5705 24.265 18.1944 23.4954 18.1944H22.1019V20.9166H23.4954C24.265 20.9166 24.8889 21.5405 24.8889 22.3102V22.3102C24.8889 23.0798 24.265 23.7037 23.4954 23.7037H22.1019V26.4907C22.1019 27.2253 21.821 27.8734 21.2593 28.4352C20.7407 28.9537 20.1142 29.2129 19.3796 29.2129H16.5926V30.6065C16.5926 31.3761 15.9687 32 15.1991 32V32C14.4295 32 13.8056 31.3761 13.8056 30.6065V29.2129H11.0833V30.6065C11.0833 31.3761 10.4594 32 9.68982 32V32C8.9202 32 8.2963 31.3761 8.2963 30.6065V29.2129H5.50926C4.77469 29.2129 4.12654 28.9537 3.56482 28.4352C3.0463 27.8734 2.78704 27.2253 2.78704 26.4907V23.7037H1.39352C0.623899 23.7037 0 23.0798 0 22.3102V22.3102C0 21.5405 0.6239 20.9166 1.39352 20.9166H2.78704V18.1944H1.39352C0.623899 18.1944 0 17.5705 0 16.8009V16.8009C0 16.0313 0.6239 15.4074 1.39352 15.4074H2.78704V12.6203C2.78704 11.8858 3.0463 11.2592 3.56482 10.7407C4.12654 10.179 4.77469 9.89812 5.50926 9.89812H8.2963V8.5046C8.2963 7.73498 8.9202 7.11108 9.68982 7.11108V7.11108C10.4594 7.11108 11.0833 7.73498 11.0833 8.5046V9.89812H13.8056V8.5046C13.8056 7.73498 14.4295 7.11108 15.1991 7.11108V7.11108C15.9687 7.11108 16.5926 7.73498 16.5926 8.5046V9.89812H19.3796C20.1142 9.89812 20.7407 10.179 21.2593 10.7407C21.821 11.2592 22.1019 11.8858 22.1019 12.6203V15.4074H23.4954C24.265 15.4074 24.8889 16.0313 24.8889 16.8009V16.8009ZM13.8056 20.9166V18.1944H11.0833V20.9166H13.8056ZM14.5926 15.4074C15.6972 15.4074 16.5926 16.3028 16.5926 17.4074V21.7037C16.5926 22.8082 15.6972 23.7037 14.5926 23.7037H10.2963C9.19173 23.7037 8.2963 22.8082 8.2963 21.7037V17.4074C8.2963 16.3028 9.19173 15.4074 10.2963 15.4074H14.5926Z" fill="#0B0D17"/>
</g>
<defs>
<clipPath id="clip0">
<rect width="32" height="32" fill="white"/>
</clipPath>
</defs>
</svg>
