<svg width="32" height="32" viewBox="0 0 32 32" fill="none" xmlns="http://www.w3.org/2000/svg">
<g clip-path="url(#clip0)">
<rect x="6.22217" width="25.7778" height="25.7778" rx="3" fill="#6EE5C4"/>
<path d="M1.93465 11.886L8.10515 11.0483C8.40518 11.0076 8.67228 11.2408 8.67241 11.5435L8.67487 17.046C8.675 17.3211 8.45283 17.5447 8.17771 17.5462L2.00988 17.5812C1.73284 17.5828 1.50734 17.3588 1.50704 17.0818L1.50191 12.382C1.50164 12.1317 1.68657 11.9197 1.93465 11.886ZM8.66811 22.1485L8.67248 27.6576C8.67272 27.9609 8.40507 28.1946 8.10459 28.1534L1.93986 27.3084C1.69228 27.2745 1.50777 27.063 1.50775 26.8131L1.50743 22.1091C1.50741 21.8317 1.73325 21.6073 2.01066 21.6091L8.17134 21.6489C8.44606 21.6507 8.66789 21.8737 8.66811 22.1485ZM13.3275 10.3086L22.8138 8.92834C23.1154 8.88446 23.3858 9.11834 23.3858 9.42313V16.9262C23.3858 17.2008 23.1643 17.424 22.8897 17.4262L13.4035 17.5012C13.1258 17.5034 12.8995 17.2789 12.8995 17.0012V10.8034C12.8995 10.555 13.0818 10.3443 13.3275 10.3086ZM23.3883 22.2507L23.3863 29.6991C23.3862 30.0029 23.1175 30.2364 22.8166 30.1941L13.3264 28.8588C13.08 28.8241 12.8966 28.6135 12.8961 28.3646L12.8844 22.236C12.8838 21.9592 13.1084 21.7346 13.3852 21.7351L22.8892 21.7506C23.165 21.751 23.3884 21.9748 23.3883 22.2507Z" stroke="#0B0D17" stroke-width="3"/>
</g>
<defs>
<clipPath id="clip0">
<rect width="32" height="32" fill="white"/>
</clipPath>
</defs>
</svg>
