<svg width="32" height="32" viewBox="0 0 32 32" fill="none" xmlns="http://www.w3.org/2000/svg">
<g clip-path="url(#clip0)">
<rect x="6.22217" width="25.7778" height="25.7778" rx="3" fill="#6EE5C4"/>
<path d="M29.4667 28.3889H19.9433C18.868 28.3889 17.9784 29.5336 16.9435 29.8255C16.7954 29.8672 16.6369 29.8889 16.4711 29.8889H13.6C13.4849 29.8889 13.3733 29.875 13.2662 29.8492C12.1791 29.5878 11.1357 28.3889 10.0176 28.3889H0.755556C0.34 28.3889 0 28.7264 0 29.1389V29.8889C0 31.5389 1.36 32 3.02222 32H27.2C28.8622 32 30.2222 31.5389 30.2222 29.8889V29.1389C30.2222 28.7264 29.8822 28.3889 29.4667 28.3889ZM27.2 11.1389C27.2 9.90142 26.18 8.88892 24.9333 8.88892H5.28889C4.04222 8.88892 3.02222 9.90142 3.02222 11.1389V24.8889C3.02222 25.9935 3.91765 26.8889 5.02222 26.8889H25.2C26.3046 26.8889 27.2 25.9935 27.2 24.8889V11.1389ZM24.9333 23.4445C24.9333 23.9968 24.4856 24.4445 23.9333 24.4445H6.28889C5.7366 24.4445 5.28889 23.9968 5.28889 23.4445V12.1111C5.28889 11.5589 5.7366 11.1111 6.28889 11.1111H23.9333C24.4856 11.1111 24.9333 11.5589 24.9333 12.1111V23.4445Z" fill="#0B0D17"/>
</g>
<defs>
<clipPath id="clip0">
<rect width="32" height="32" fill="white"/>
</clipPath>
</defs>
</svg>
