<svg width="32" height="32" viewBox="0 0 32 32" fill="none" xmlns="http://www.w3.org/2000/svg">
<g clip-path="url(#clip0)">
<rect x="6.22217" width="25.7778" height="25.7778" rx="3" fill="#6EE5C4"/>
<path d="M1.77783 14.8572L13.0771 22.2045C13.5478 22.5108 14.1009 22.6742 14.6667 22.6742C15.2325 22.6742 15.7857 22.5108 16.2564 22.2045L27.5556 14.8572M4.64203 30.2222H24.6914C25.451 30.2222 26.1796 29.9279 26.7167 29.404C27.2538 28.8801 27.5556 28.1695 27.5556 27.4286V13.4603C27.5556 12.7194 27.2538 12.0088 26.7167 11.4849C26.1796 10.961 25.451 10.6667 24.6914 10.6667H4.64203C3.8824 10.6667 3.15388 10.961 2.61674 11.4849C2.07959 12.0088 1.77783 12.7194 1.77783 13.4603V27.4286C1.77783 28.1695 2.07959 28.8801 2.61674 29.404C3.15388 29.9279 3.8824 30.2222 4.64203 30.2222Z" stroke="#0B0D17" stroke-width="3" stroke-linecap="round" stroke-linejoin="round"/>
</g>
<defs>
<clipPath id="clip0">
<rect width="32" height="32" fill="white"/>
</clipPath>
</defs>
</svg>
