<svg width="32" height="32" viewBox="0 0 32 32" fill="none" xmlns="http://www.w3.org/2000/svg">
<g clip-path="url(#clip0)">
<rect x="6.22217" width="25.7778" height="25.7778" rx="3" fill="#6EE5C4"/>
<path d="M18.2844 31.6105L17.7193 30.221C17.012 30.5087 16.4645 30.5675 15.9312 30.4095C14.4963 29.6685 13.0797 29.3708 12.234 29.34L12.2339 29.34C11.7167 29.3212 11.0018 29.429 10.3516 29.5869C9.71593 29.7413 8.94933 29.9896 8.32206 30.3595C8.09108 30.4658 7.73229 30.524 7.31879 30.4907C7.11382 30.4742 6.93178 30.4376 6.79328 30.3957C6.68654 30.3634 6.63702 30.3375 6.63019 30.3345C6.1869 30.0076 4.99984 28.9477 4.10862 27.4252L4.06709 27.3543L4.01806 27.2883C3.06767 26.0094 2.46703 24.2127 2.016 22.8636C2.00173 22.8209 1.9876 22.7786 1.97361 22.7368C1.81375 22.2586 1.56904 21.0385 1.51202 19.6009C1.45456 18.1521 1.59911 16.7189 2.04309 15.7098L2.04324 15.7094C3.02763 13.4704 4.368 12.7401 4.91429 12.5216L4.91576 12.521C5.83654 12.1515 6.65835 11.8916 7.31535 12.0185L7.35242 12.0257L7.38981 12.031C8.11353 12.1333 8.84894 12.3846 9.55074 12.6483C9.63367 12.6795 9.71958 12.7122 9.80647 12.7452C10.057 12.8405 10.3157 12.9388 10.5343 13.013C10.764 13.0909 11.2412 13.2525 11.7154 13.2255L11.7157 13.2255C12.0526 13.2063 12.4432 13.0978 12.7089 13.0198C13.0243 12.9271 13.3843 12.8078 13.7331 12.6894C13.9141 12.628 14.0899 12.5676 14.2581 12.5098C14.7796 12.3308 15.2271 12.1771 15.5247 12.0957L15.5247 12.0957C16.0934 11.94 16.4772 11.9063 16.7076 11.9029C16.8236 11.9012 16.913 11.907 16.9839 11.9135C17.0158 11.9165 17.0414 11.9193 17.0746 11.9229C17.0831 11.9238 17.0922 11.9248 17.1021 11.9259L17.1076 11.9265C17.1373 11.9297 17.212 11.9379 17.2922 11.9412C18.0348 11.9791 18.7599 12.18 19.4161 12.5298C19.6651 12.6702 19.9274 12.8625 20.1751 13.0718C20.0769 13.167 19.9769 13.2693 19.8763 13.3793C18.9701 14.3694 18.0764 15.9083 17.8545 18.2002C17.6078 20.7456 18.8292 22.6348 19.9718 23.8216C20.458 24.3266 20.9496 24.727 21.3498 25.0235C21.2366 25.3019 21.0919 25.6427 20.9138 26.0491C20.1451 27.4718 19.4558 28.4899 18.8765 29.1794C18.2664 29.9058 17.8669 30.1607 17.7171 30.2219L18.2844 31.6105ZM18.2844 31.6105C19.2461 31.2176 20.6381 29.7279 22.263 26.7074L12.1795 30.839C12.8141 30.8621 14.0657 31.1127 15.3475 31.7972C16.3626 32.1474 17.3226 32.0016 18.2844 31.6105ZM14.6951 7.02134C14.2484 7.65037 13.7162 8.03859 13.2136 8.27839C13.3878 7.77257 13.6838 7.21012 14.1817 6.67019L14.1822 6.66972C14.6117 6.20352 15.0541 5.86886 15.464 5.62948C15.3015 6.03999 15.0581 6.51002 14.6951 7.02134ZM11.7166 8.64698C11.7165 8.64697 11.7174 8.64701 11.7193 8.64713C11.7191 8.64712 11.719 8.64711 11.7188 8.64711C11.7174 8.64704 11.7166 8.64699 11.7166 8.64698ZM21.6314 24.2583C21.6314 24.2584 21.6311 24.2599 21.6304 24.2629C21.631 24.2598 21.6314 24.2582 21.6314 24.2583Z" stroke="#0B0D17" stroke-width="3"/>
</g>
<defs>
<clipPath id="clip0">
<rect width="32" height="32" fill="white"/>
</clipPath>
</defs>
</svg>
