<svg width="336" height="147" viewBox="0 0 336 147" fill="none" xmlns="http://www.w3.org/2000/svg">
<path d="M336 131L0 131L-1.14524e-05 2.93741e-05L336 0L336 131Z" fill="#4ADEB5"/>
<path d="M336 146.999L-1.39475e-05 147L-2.67986e-05 0.000765372L40.2098 0.000761857C47.1034 0.936211 54.0805 1.83826 60.7404 4.0516C69.9291 6.17306 77.8075 11.6438 85.2102 17.2481C88.9407 20.7811 93.3306 23.6459 96.2683 27.9473C99.6984 31.355 102.311 35.4393 104.697 39.607C108.662 47.241 112.459 55.4763 111.958 64.2962C112.743 68.7229 112.885 73.2164 113.619 77.6431C112.968 83.0052 115.272 88.0333 115.405 93.3369C115.756 95.5002 116.932 97.4128 117.525 99.5092C119.102 105.489 122.516 110.827 126.38 115.587C129.743 120.114 134.809 122.879 139.583 125.66C155.289 132.459 174.268 133.043 189.465 124.558C193.855 122.561 197.369 119.204 201.049 116.197C208.168 108.688 213.342 99.2754 215.562 89.1441C215.83 85.4775 216.581 81.8777 217.24 78.2695C217.774 74.5695 216.848 70.7525 217.782 67.0942C218.876 63.177 217.373 58.9174 219.21 55.1338C220.637 47.3412 224.618 40.342 228.674 33.6352C236.552 21.75 247.877 12.3788 260.696 6.23152C269.501 2.68182 278.965 1.23687 288.279 0.00074017L336 3.57995e-06L336 146.999Z" fill="#0B0D17"/>
<path d="M124 79C124 56.9086 141.909 39 164 39V39C186.091 39 204 56.9086 204 79V79C204 101.091 186.091 119 164 119V119C141.909 119 124 101.091 124 79V79Z" fill="#333333"/>
<path d="M164 95C172.837 95 180 87.8366 180 79C180 70.1634 172.837 63 164 63C155.163 63 148 70.1634 148 79C148 87.8366 155.163 95 164 95Z" stroke="#4ADEB5" stroke-width="4"/>
<path d="M157.6 82.2L164 75.8L170.4 82.2" stroke="#4ADEB5" stroke-width="4" stroke-linecap="round" stroke-linejoin="round"/>
</svg>
