<svg width="278" height="438" viewBox="0 0 278 438" fill="none" xmlns="http://www.w3.org/2000/svg">
<path d="M92.2154 214.878C88.6535 202.977 80.421 196.194 68.6812 195.645C40.6037 194.352 12.4534 193.856 -15.6605 193.661C-32.5797 193.555 -49.4989 195.025 -66.4181 195.078C-88.2804 195.149 -99.5114 189.34 -106.781 173.046C-111.56 162.331 -109.616 151.493 -105.109 141.274C-98.1484 125.547 -87.4081 112.813 -69.562 108.775C-59.4032 106.473 -48.6266 106.012 -38.1406 106.03C4.23916 106.048 46.6008 106.774 88.9806 106.845C113.187 106.88 137.376 105.977 161.582 105.871C171.85 105.817 182.154 106.313 192.368 107.323C209.214 108.988 225.715 125.139 225.824 142.212C225.952 162.562 221.372 180.609 207.542 195.999C195.657 209.229 180.991 218.031 162.927 220.457C145.336 222.813 127.653 224.637 109.353 226.762C105.682 240.718 101.92 255.169 98.0853 269.586C93.7783 285.773 89.4531 301.96 85.037 318.13C79.785 337.399 74.5511 356.668 69.0992 375.884C65.3191 389.22 60.5396 402.166 51.6893 413.27C33.607 445.255 -68.7261 449.471 -55.1507 397.313C-50.2258 378.859 -44.4649 360.617 -39.3764 342.199C-32.3434 316.696 -25.6193 291.122 -18.6954 265.583C-12.462 242.613 2.78531 228.427 26.574 224.07C44.3291 220.829 62.3933 219.217 80.312 216.826C84.1647 216.295 87.9992 215.569 92.2154 214.878ZM107.154 214.489C124.927 212.771 143.609 212.771 161.382 208.839C190.35 202.428 208.651 184.682 213.358 154.804C216.483 134.969 209.705 123.705 189.751 118.994C186.28 118.179 182.591 118.002 178.992 118.002C115.713 117.949 52.4344 117.984 -10.8446 117.984C-24.7652 117.984 -38.7222 117.577 -52.6246 118.091C-78.3397 119.029 -92.024 133.286 -96.3311 156.115C-98.5664 167.946 -92.5692 180.626 -77.2856 182.096C-70.4707 182.752 -63.5285 182.061 -56.6409 182.043C-18.1865 181.99 20.2679 181.707 58.7041 182.079C69.499 182.185 79.9122 184.345 89.3804 190.934C97.7582 196.778 101.502 205.208 107.154 214.489ZM96.4679 227.895C89.6893 227.895 84.2192 227.329 78.9308 228.002C62.7931 230.056 46.6008 232.022 30.6448 235.05C10.4907 238.876 -2.39405 250.636 -7.55522 270.489C-15.6786 301.766 -24.2018 332.936 -32.7614 364.089C-35.8872 375.423 -39.958 386.528 -42.9747 397.88C-57.2588 435.869 35.4243 428.873 43.3296 404.167C53.1431 390.3 57.014 374.184 61.4846 358.368C68.5176 333.503 75.06 308.496 81.7477 283.524C86.6181 265.388 91.3613 247.235 96.4679 227.895Z" fill="#333333" stroke="#333333"/>
<path d="M58.8845 1.01865C84.4722 1.6208 106.498 21.2971 106.462 47.7388C106.425 74.4461 85.3445 94.636 58.2666 94.6006C32.5879 94.5651 9.85336 73.1886 10.6348 46.2688C11.4344 19.8625 36.3498 0.310232 58.8845 1.01865ZM94.9581 47.5085C95.7577 26.1675 76.785 11.8751 58.2302 11.6803C41.7654 11.5032 21.0844 26.6811 21.5387 47.8627C21.9748 68.1943 38.0217 83.9212 58.1757 83.9035C78.5841 83.868 96.0849 68.5485 94.9581 47.5085Z" fill="#333333" stroke="#333333"/>
</svg>
