<svg width="36" height="37" viewBox="0 0 36 37" fill="none" xmlns="http://www.w3.org/2000/svg">
<path d="M20.66 18.1597C20.3659 17.177 19.6861 16.6169 18.7168 16.5716C16.3985 16.4649 14.0741 16.4239 11.7528 16.4078C10.3558 16.3991 8.95881 16.5204 7.56181 16.5248C5.75666 16.5307 4.82933 16.051 4.22912 14.7057C3.83448 13.821 3.99504 12.926 4.36717 12.0823C4.94187 10.7837 5.82869 9.7323 7.30222 9.39889C8.14102 9.20879 9.03083 9.17077 9.89664 9.17223C13.3959 9.17369 16.8936 9.23365 20.3929 9.2395C22.3916 9.24242 24.3888 9.16785 26.3875 9.15907C27.2353 9.15468 28.0861 9.19563 28.9294 9.27898C30.3204 9.41644 31.6829 10.7501 31.6919 12.1598C31.7024 13.84 31.3243 15.3301 30.1824 16.6009C29.201 17.6932 27.9901 18.42 26.4986 18.6203C25.0461 18.8148 23.586 18.9654 22.075 19.1409C21.7719 20.2932 21.4613 21.4865 21.1447 22.6768C20.789 24.0134 20.4319 25.35 20.0673 26.6851C19.6336 28.2761 19.2015 29.8671 18.7513 31.4537C18.4392 32.5549 18.0446 33.6238 17.3138 34.5407C15.8208 37.1817 7.37124 37.5297 8.49214 33.2232C8.89879 31.6994 9.37446 30.1932 9.79461 28.6724C10.3753 26.5666 10.9305 24.455 11.5022 22.3464C12.0169 20.4497 13.2759 19.2784 15.2401 18.9187C16.7061 18.651 18.1976 18.518 19.6771 18.3206C19.9952 18.2767 20.3119 18.2167 20.66 18.1597ZM21.8934 18.1275C23.361 17.9857 24.9035 17.9857 26.371 17.6611C28.7629 17.1317 30.2739 15.6664 30.6626 13.1995C30.9206 11.5617 30.3609 10.6316 28.7134 10.2427C28.4268 10.1754 28.1222 10.1608 27.825 10.1608C22.6002 10.1564 17.3753 10.1593 12.1504 10.1593C11.001 10.1593 9.84863 10.1257 8.70072 10.1681C6.57746 10.2456 5.44755 11.4228 5.09193 13.3077C4.90736 14.2845 5.40254 15.3316 6.66449 15.4529C7.22719 15.507 7.80039 15.45 8.3691 15.4485C11.5442 15.4442 14.7194 15.4208 17.893 15.4515C18.7843 15.4602 19.6441 15.6387 20.4259 16.1826C21.1176 16.6652 21.4268 17.3613 21.8934 18.1275ZM21.0111 19.2345C20.4514 19.2345 19.9998 19.1877 19.5631 19.2433C18.2306 19.4129 16.8936 19.5752 15.5762 19.8253C13.9121 20.1412 12.8482 21.1121 12.422 22.7514C11.7513 25.3339 11.0476 27.9076 10.3408 30.4798C10.0827 31.4157 9.74659 32.3326 9.4975 33.27C8.31808 36.4066 15.9708 35.829 16.6235 33.7891C17.4338 32.6441 17.7534 31.3134 18.1226 30.0075C18.7033 27.9544 19.2435 25.8896 19.7957 23.8277C20.1978 22.3303 20.5895 20.8314 21.0111 19.2345Z" fill="#4ADEB5" stroke="#4ADEB5"/>
<path d="M17.9079 0.501479C20.0206 0.551198 21.8393 2.17585 21.8363 4.3591C21.8333 6.56429 20.0927 8.23135 17.8569 8.22843C15.7366 8.2255 13.8595 6.46047 13.924 4.23773C13.99 2.0574 16.0472 0.442986 17.9079 0.501479ZM20.8865 4.34009C20.9525 2.57799 19.3859 1.39789 17.8539 1.3818C16.4944 1.36718 14.7868 2.62039 14.8243 4.36934C14.8603 6.04809 16.1853 7.34664 17.8494 7.34518C19.5345 7.34225 20.9795 6.07734 20.8865 4.34009Z" fill="#4ADEB5" stroke="#4ADEB5"/>
</svg>
