<svg width="336" height="147" viewBox="0 0 336 147" fill="none" xmlns="http://www.w3.org/2000/svg">
<path d="M0 16.0007H336V147.001H0V16.0007Z" fill="#DBF8F0"/>
<path d="M0 0.000732418L336 0V146.999H295.79C288.897 146.064 281.92 145.162 275.26 142.948C266.071 140.827 258.193 135.356 250.79 129.752C247.059 126.219 242.669 123.354 239.732 119.053C236.302 115.645 233.689 111.561 231.303 107.393C227.338 99.759 223.541 91.5237 224.042 82.7038C223.257 78.2771 223.115 73.7836 222.381 69.3569C223.032 63.9948 220.728 58.9667 220.595 53.6631C220.244 51.4999 219.068 49.5872 218.475 47.4908C216.898 41.5106 213.484 36.1735 209.62 31.4127C206.257 26.8858 201.191 24.1212 196.417 21.3399C180.711 14.5412 161.732 13.9566 146.535 22.4424C142.145 24.4386 138.631 27.7962 134.951 30.803C127.832 38.3117 122.657 47.7246 120.438 57.8559C120.17 61.5225 119.419 65.1223 118.76 68.7305C118.226 72.4305 119.152 76.2475 118.218 79.9058C117.124 83.823 118.627 88.0826 116.79 91.8662C115.363 99.6588 111.382 106.658 107.326 113.365C99.448 125.25 88.1228 134.621 75.3037 140.768C66.4989 144.318 57.0348 145.763 47.721 146.999L0 147V0.000732418Z" fill="white"/>
<path d="M172 95.2864C167.727 95.2864 163.629 93.6058 160.608 90.6141C157.586 87.6225 155.889 83.5649 155.889 79.3341H162.333C162.333 81.8726 163.352 84.3071 165.165 86.1021C166.977 87.8971 169.436 88.9055 172 88.9055C174.564 88.9055 177.023 87.8971 178.835 86.1021C180.648 84.3071 181.667 81.8726 181.667 79.3341H188.111C188.111 83.5649 186.414 87.6225 183.392 90.6141C180.371 93.6058 176.273 95.2864 172 95.2864V95.2864ZM172 63.3817C174.564 63.3817 177.023 64.3901 178.835 66.1851C180.648 67.9801 181.667 70.4146 181.667 72.9531H162.333C162.333 70.4146 163.352 67.9801 165.165 66.1851C166.977 64.3901 169.436 63.3817 172 63.3817V63.3817ZM194.556 72.9531H188.111C188.111 70.8582 187.694 68.7838 186.885 66.8484C186.075 64.913 184.888 63.1544 183.392 61.6731C181.896 60.1918 180.12 59.0167 178.165 58.215C176.211 57.4134 174.116 57.0007 172 57.0007C167.727 57.0007 163.629 58.6814 160.608 61.6731C157.586 64.6647 155.889 68.7223 155.889 72.9531H149.444C145.868 72.9531 143 75.7926 143 79.3341V117.62C143 119.312 143.679 120.935 144.888 122.132C146.096 123.328 147.735 124.001 149.444 124.001H194.556C196.265 124.001 197.904 123.328 199.112 122.132C200.321 120.935 201 119.312 201 117.62V79.3341C201 77.6417 200.321 76.0187 199.112 74.8221C197.904 73.6254 196.265 72.9531 194.556 72.9531V72.9531Z" fill="#6EE5C4"/>
</svg>
